<?xml version="1.0" encoding="UTF-8"?>
<svg xmlns="http://www.w3.org/2000/svg" xmlns:xlink="http://www.w3.org/1999/xlink" width="3840" height="2160" viewBox="0 0 3840 2160">
<defs>
<g>
<g id="glyph-0-0">
<path d="M 4.960938 0.1875 C 4.167969 0.1875 3.507812 0.046875 2.972656 -0.234375 C 2.441406 -0.511719 2.039062 -0.910156 1.773438 -1.421875 C 1.507812 -1.933594 1.375 -2.523438 1.375 -3.199219 L 1.375 -7.292969 C 1.375 -7.613281 1.308594 -7.847656 1.179688 -7.992188 C 1.050781 -8.140625 0.910156 -8.230469 0.761719 -8.265625 C 0.46875 -8.347656 0.320312 -8.445312 0.320312 -8.558594 C 0.320312 -8.613281 0.355469 -8.652344 0.425781 -8.671875 C 0.496094 -8.695312 0.589844 -8.707031 0.707031 -8.707031 C 0.910156 -8.707031 1.113281 -8.699219 1.3125 -8.6875 C 1.511719 -8.671875 1.738281 -8.667969 1.988281 -8.667969 C 2.191406 -8.667969 2.382812 -8.671875 2.566406 -8.679688 C 2.75 -8.6875 2.910156 -8.691406 3.054688 -8.691406 C 3.167969 -8.691406 3.261719 -8.683594 3.332031 -8.660156 C 3.402344 -8.636719 3.441406 -8.601562 3.441406 -8.546875 C 3.441406 -8.484375 3.40625 -8.433594 3.332031 -8.398438 C 3.261719 -8.363281 3.152344 -8.324219 3 -8.28125 C 2.894531 -8.246094 2.773438 -8.140625 2.640625 -7.972656 C 2.507812 -7.804688 2.441406 -7.585938 2.441406 -7.320312 L 2.441406 -3.574219 C 2.441406 -2.863281 2.558594 -2.277344 2.800781 -1.820312 C 3.039062 -1.363281 3.371094 -1.023438 3.792969 -0.808594 C 4.214844 -0.589844 4.699219 -0.480469 5.238281 -0.480469 C 6.15625 -0.480469 6.828125 -0.796875 7.253906 -1.433594 C 7.679688 -2.070312 7.894531 -2.90625 7.894531 -3.945312 C 7.894531 -4.140625 7.890625 -4.398438 7.886719 -4.71875 C 7.882812 -5.039062 7.875 -5.382812 7.867188 -5.753906 C 7.859375 -6.121094 7.847656 -6.476562 7.839844 -6.8125 C 7.839844 -7.042969 7.820312 -7.261719 7.78125 -7.464844 C 7.742188 -7.671875 7.679688 -7.847656 7.601562 -7.992188 C 7.519531 -8.140625 7.417969 -8.230469 7.292969 -8.265625 C 7.203125 -8.292969 7.109375 -8.328125 7.007812 -8.375 C 6.90625 -8.417969 6.851562 -8.472656 6.851562 -8.53125 C 6.851562 -8.585938 6.890625 -8.625 6.960938 -8.644531 C 7.03125 -8.667969 7.125 -8.679688 7.238281 -8.679688 C 7.445312 -8.679688 7.613281 -8.675781 7.746094 -8.671875 C 7.878906 -8.667969 8.042969 -8.667969 8.238281 -8.667969 C 8.382812 -8.667969 8.515625 -8.667969 8.640625 -8.671875 C 8.765625 -8.675781 8.882812 -8.683594 9 -8.691406 C 9.117188 -8.703125 9.222656 -8.707031 9.320312 -8.707031 C 9.433594 -8.707031 9.527344 -8.695312 9.601562 -8.671875 C 9.671875 -8.652344 9.707031 -8.613281 9.707031 -8.558594 C 9.707031 -8.445312 9.558594 -8.355469 9.265625 -8.292969 C 9.035156 -8.25 8.871094 -8.136719 8.773438 -7.960938 C 8.675781 -7.78125 8.617188 -7.558594 8.601562 -7.292969 C 8.554688 -6.527344 8.527344 -5.832031 8.511719 -5.199219 C 8.5 -4.570312 8.484375 -3.945312 8.464844 -3.332031 C 8.449219 -2.648438 8.285156 -2.039062 7.972656 -1.507812 C 7.660156 -0.972656 7.246094 -0.558594 6.726562 -0.261719 C 6.207031 0.0390625 5.617188 0.1875 4.960938 0.1875 Z "/>
</g>
<g id="glyph-0-1">
<path d="M 1.921875 0.1875 C 1.644531 0.1875 1.386719 0.144531 1.148438 0.0585938 C 0.90625 -0.0234375 0.703125 -0.140625 0.535156 -0.292969 C 0.488281 -0.390625 0.457031 -0.554688 0.433594 -0.785156 C 0.410156 -1.015625 0.394531 -1.207031 0.386719 -1.359375 C 0.386719 -1.441406 0.445312 -1.480469 0.558594 -1.480469 C 0.59375 -1.480469 0.628906 -1.472656 0.660156 -1.460938 C 0.691406 -1.445312 0.710938 -1.421875 0.71875 -1.386719 C 0.835938 -0.949219 1.019531 -0.640625 1.273438 -0.453125 C 1.527344 -0.265625 1.78125 -0.171875 2.039062 -0.171875 C 2.296875 -0.171875 2.519531 -0.261719 2.699219 -0.433594 C 2.882812 -0.605469 2.972656 -0.820312 2.972656 -1.078125 C 2.972656 -1.320312 2.894531 -1.527344 2.734375 -1.699219 C 2.574219 -1.871094 2.292969 -2.085938 1.894531 -2.332031 C 1.589844 -2.519531 1.347656 -2.699219 1.160156 -2.867188 C 0.972656 -3.035156 0.835938 -3.207031 0.753906 -3.386719 C 0.667969 -3.5625 0.625 -3.765625 0.625 -3.988281 C 0.625 -4.273438 0.691406 -4.527344 0.828125 -4.761719 C 0.960938 -4.992188 1.160156 -5.175781 1.425781 -5.3125 C 1.691406 -5.449219 2.027344 -5.519531 2.425781 -5.519531 C 2.691406 -5.519531 2.914062 -5.492188 3.09375 -5.441406 C 3.269531 -5.386719 3.40625 -5.328125 3.492188 -5.265625 C 3.5625 -5.167969 3.625 -5.015625 3.671875 -4.804688 C 3.722656 -4.597656 3.746094 -4.398438 3.746094 -4.214844 C 3.746094 -4.152344 3.703125 -4.121094 3.613281 -4.121094 C 3.558594 -4.121094 3.507812 -4.132812 3.460938 -4.152344 C 3.410156 -4.175781 3.378906 -4.203125 3.359375 -4.238281 C 3.246094 -4.53125 3.101562 -4.757812 2.925781 -4.914062 C 2.753906 -5.070312 2.539062 -5.148438 2.28125 -5.148438 C 2.058594 -5.148438 1.859375 -5.078125 1.6875 -4.945312 C 1.511719 -4.8125 1.425781 -4.617188 1.425781 -4.359375 C 1.425781 -4.15625 1.492188 -3.972656 1.621094 -3.8125 C 1.75 -3.652344 1.992188 -3.472656 2.347656 -3.265625 C 2.863281 -2.972656 3.246094 -2.699219 3.5 -2.445312 C 3.753906 -2.191406 3.878906 -1.859375 3.878906 -1.441406 C 3.878906 -0.960938 3.699219 -0.570312 3.332031 -0.265625 C 2.96875 0.0351562 2.496094 0.1875 1.921875 0.1875 Z "/>
</g>
<g id="glyph-0-2">
<path d="M 2.839844 0.199219 C 2.351562 0.199219 1.925781 0.078125 1.558594 -0.160156 C 1.195312 -0.398438 0.910156 -0.738281 0.707031 -1.179688 C 0.503906 -1.621094 0.398438 -2.128906 0.398438 -2.707031 C 0.398438 -3.222656 0.519531 -3.691406 0.753906 -4.113281 C 0.988281 -4.535156 1.300781 -4.875 1.691406 -5.132812 C 2.082031 -5.390625 2.511719 -5.519531 2.972656 -5.519531 C 3.328125 -5.519531 3.644531 -5.449219 3.917969 -5.304688 C 4.195312 -5.164062 4.410156 -4.964844 4.566406 -4.714844 C 4.722656 -4.460938 4.800781 -4.167969 4.800781 -3.839844 C 4.800781 -3.5625 4.667969 -3.425781 4.398438 -3.425781 L 1.585938 -3.425781 C 1.460938 -3.425781 1.375 -3.394531 1.328125 -3.328125 C 1.277344 -3.261719 1.253906 -3.128906 1.253906 -2.933594 C 1.253906 -2.507812 1.347656 -2.117188 1.535156 -1.765625 C 1.71875 -1.414062 1.96875 -1.136719 2.28125 -0.925781 C 2.589844 -0.71875 2.933594 -0.613281 3.304688 -0.613281 C 3.574219 -0.613281 3.816406 -0.664062 4.035156 -0.765625 C 4.25 -0.867188 4.445312 -1.019531 4.613281 -1.214844 C 4.648438 -1.257812 4.675781 -1.285156 4.691406 -1.300781 C 4.710938 -1.3125 4.734375 -1.320312 4.761719 -1.320312 C 4.832031 -1.320312 4.867188 -1.277344 4.867188 -1.1875 C 4.867188 -1.019531 4.785156 -0.832031 4.625 -0.625 C 4.492188 -0.457031 4.332031 -0.3125 4.148438 -0.1875 C 3.960938 -0.0625 3.753906 0.0351562 3.535156 0.101562 C 3.3125 0.167969 3.078125 0.199219 2.839844 0.199219 Z M 1.613281 -3.839844 L 2.828125 -3.839844 C 3.039062 -3.839844 3.222656 -3.84375 3.375 -3.851562 C 3.523438 -3.863281 3.671875 -3.878906 3.8125 -3.90625 C 3.859375 -3.914062 3.886719 -3.945312 3.898438 -3.992188 C 3.914062 -4.042969 3.917969 -4.109375 3.917969 -4.199219 C 3.917969 -4.457031 3.804688 -4.675781 3.578125 -4.859375 C 3.351562 -5.042969 3.085938 -5.132812 2.773438 -5.132812 C 2.570312 -5.132812 2.363281 -5.074219 2.160156 -4.953125 C 1.957031 -4.832031 1.785156 -4.683594 1.652344 -4.507812 C 1.519531 -4.328125 1.453125 -4.152344 1.453125 -3.972656 C 1.453125 -3.882812 1.507812 -3.839844 1.613281 -3.839844 Z "/>
</g>
<g id="glyph-0-3">
<rect x="0" y="0" width="0" height="0" mask="url(#mask-0)"/>
</g>
<g id="glyph-0-4">
<path d="M 0.640625 0.0664062 C 0.523438 0.0664062 0.429688 0.0546875 0.359375 0.0351562 C 0.289062 0.0117188 0.253906 -0.0273438 0.253906 -0.078125 C 0.253906 -0.1875 0.398438 -0.265625 0.691406 -0.320312 C 1.03125 -0.382812 1.289062 -0.484375 1.464844 -0.625 C 1.644531 -0.769531 1.734375 -0.996094 1.734375 -1.304688 L 1.734375 -7.332031 C 1.734375 -7.644531 1.667969 -7.867188 1.539062 -8 C 1.410156 -8.132812 1.179688 -8.230469 0.839844 -8.292969 C 0.546875 -8.347656 0.398438 -8.433594 0.398438 -8.558594 C 0.398438 -8.613281 0.433594 -8.652344 0.507812 -8.671875 C 0.578125 -8.695312 0.671875 -8.707031 0.785156 -8.707031 C 1.027344 -8.707031 1.222656 -8.703125 1.378906 -8.691406 C 1.535156 -8.683594 1.683594 -8.675781 1.828125 -8.671875 C 1.96875 -8.667969 2.140625 -8.667969 2.347656 -8.667969 C 2.542969 -8.667969 2.703125 -8.667969 2.828125 -8.671875 C 2.953125 -8.675781 3.085938 -8.683594 3.226562 -8.691406 C 3.367188 -8.703125 3.558594 -8.707031 3.800781 -8.707031 C 3.914062 -8.707031 4.007812 -8.695312 4.078125 -8.671875 C 4.152344 -8.652344 4.1875 -8.613281 4.1875 -8.558594 C 4.1875 -8.496094 4.152344 -8.445312 4.078125 -8.398438 C 4.007812 -8.355469 3.898438 -8.320312 3.746094 -8.292969 C 3.417969 -8.230469 3.175781 -8.132812 3.027344 -8 C 2.875 -7.867188 2.800781 -7.644531 2.800781 -7.332031 L 2.800781 -1.304688 C 2.800781 -0.996094 2.894531 -0.769531 3.078125 -0.625 C 3.265625 -0.484375 3.523438 -0.382812 3.851562 -0.320312 C 4.003906 -0.292969 4.117188 -0.261719 4.1875 -0.226562 C 4.257812 -0.191406 4.292969 -0.140625 4.292969 -0.078125 C 4.292969 -0.0273438 4.257812 0.0117188 4.1875 0.0351562 C 4.117188 0.0546875 4.023438 0.0664062 3.90625 0.0664062 C 3.667969 0.0664062 3.46875 0.0585938 3.3125 0.046875 C 3.15625 0.0351562 3.007812 0.0234375 2.867188 0.0117188 C 2.722656 0.00390625 2.550781 0 2.347656 0 C 2.125 0 1.929688 0.00390625 1.765625 0.0117188 C 1.601562 0.0234375 1.433594 0.0351562 1.261719 0.046875 C 1.085938 0.0585938 0.878906 0.0664062 0.640625 0.0664062 Z "/>
</g>
<g id="glyph-0-5">
<path d="M 2.519531 0.1875 C 2.085938 0.1875 1.746094 0.0546875 1.5 -0.214844 C 1.253906 -0.480469 1.132812 -0.875 1.132812 -1.398438 L 1.132812 -4.492188 C 1.132812 -4.5625 1.105469 -4.617188 1.054688 -4.648438 C 1 -4.679688 0.882812 -4.691406 0.707031 -4.691406 L 0.625 -4.691406 C 0.582031 -4.691406 0.542969 -4.722656 0.511719 -4.78125 C 0.480469 -4.839844 0.464844 -4.898438 0.464844 -4.960938 C 0.464844 -4.976562 0.480469 -5.003906 0.507812 -5.039062 C 0.535156 -5.074219 0.550781 -5.097656 0.558594 -5.105469 C 0.738281 -5.230469 0.898438 -5.355469 1.046875 -5.480469 C 1.195312 -5.605469 1.328125 -5.726562 1.445312 -5.847656 C 1.566406 -5.96875 1.667969 -6.074219 1.746094 -6.171875 C 1.789062 -6.21875 1.828125 -6.253906 1.859375 -6.285156 C 1.890625 -6.316406 1.929688 -6.332031 1.972656 -6.332031 C 2.015625 -6.332031 2.058594 -6.324219 2.101562 -6.304688 C 2.140625 -6.289062 2.15625 -6.25 2.148438 -6.1875 L 2.078125 -5.585938 C 2.070312 -5.488281 2.09375 -5.421875 2.148438 -5.386719 C 2.199219 -5.351562 2.285156 -5.332031 2.398438 -5.332031 L 3.917969 -5.332031 C 3.953125 -5.332031 3.988281 -5.304688 4.011719 -5.246094 C 4.039062 -5.1875 4.054688 -5.121094 4.054688 -5.039062 C 4.054688 -4.960938 4.039062 -4.882812 4.011719 -4.804688 C 3.984375 -4.730469 3.957031 -4.691406 3.917969 -4.691406 L 2.601562 -4.691406 C 2.378906 -4.691406 2.234375 -4.675781 2.167969 -4.640625 C 2.101562 -4.605469 2.066406 -4.496094 2.066406 -4.320312 L 2.066406 -1.691406 C 2.066406 -1.335938 2.140625 -1.058594 2.292969 -0.851562 C 2.445312 -0.648438 2.664062 -0.546875 2.945312 -0.546875 C 3.203125 -0.546875 3.40625 -0.566406 3.546875 -0.605469 C 3.6875 -0.644531 3.816406 -0.707031 3.933594 -0.785156 C 3.949219 -0.804688 3.96875 -0.8125 3.988281 -0.8125 C 4.023438 -0.8125 4.046875 -0.792969 4.058594 -0.753906 C 4.074219 -0.714844 4.078125 -0.671875 4.078125 -0.625 C 4.078125 -0.582031 4.007812 -0.492188 3.859375 -0.359375 C 3.714844 -0.226562 3.523438 -0.101562 3.285156 0.0117188 C 3.050781 0.128906 2.796875 0.1875 2.519531 0.1875 Z "/>
</g>
</g>
<image id="source-72" x="0" y="0" width="0" height="0"/>
<mask id="mask-0">
<use xlink:href="#source-72"/>
</mask>
</defs>
<g fill="rgb(23.921569%, 22.352941%, 16.078431%)" fill-opacity="1">
<use xlink:href="#glyph-0-0" x="30" y="33.426758"/>
<use xlink:href="#glyph-0-1" x="40" y="33.426758"/>
<use xlink:href="#glyph-0-2" x="44" y="33.426758"/>
<use xlink:href="#glyph-0-3" x="49" y="33.426758"/>
<use xlink:href="#glyph-0-4" x="52" y="33.426758"/>
<use xlink:href="#glyph-0-5" x="57" y="33.426758"/>
</g>
</svg>
